<svg width="128" height="129" viewBox="0 0 128 129" fill="none" xmlns="http://www.w3.org/2000/svg">
<path d="M39.0333 123C35.7302 123 32.9026 121.825 30.5505 119.475C28.1983 117.125 27.0222 114.3 27.0222 111C27.0222 107.7 28.1983 104.875 30.5505 102.525C32.9026 100.175 35.7302 99 39.0333 99C42.3363 99 45.164 100.175 47.5161 102.525C49.8683 104.875 51.0444 107.7 51.0444 111C51.0444 114.3 49.8683 117.125 47.5161 119.475C45.164 121.825 42.3363 123 39.0333 123ZM99.0888 123C95.7857 123 92.9581 121.825 90.6059 119.475C88.2538 117.125 87.0777 114.3 87.0777 111C87.0777 107.7 88.2538 104.875 90.6059 102.525C92.9581 100.175 95.7857 99 99.0888 99C102.392 99 105.219 100.175 107.572 102.525C109.924 104.875 111.1 107.7 111.1 111C111.1 114.3 109.924 117.125 107.572 119.475C105.219 121.825 102.392 123 99.0888 123ZM33.9286 27L48.3419 57H90.3807L106.896 27H33.9286ZM28.2233 15H116.805C119.107 15 120.859 16.025 122.06 18.075C123.261 20.125 123.311 22.2 122.21 24.3L100.89 62.7C99.7894 64.7 98.3131 66.25 96.4613 67.35C94.6096 68.45 92.5828 69 90.3807 69H45.6394L39.0333 81H105.094C106.796 81 108.222 81.575 109.373 82.725C110.524 83.875 111.1 85.3 111.1 87C111.1 88.7 110.524 90.125 109.373 91.275C108.222 92.425 106.796 93 105.094 93H39.0333C34.5291 93 31.126 91.025 28.8239 87.075C26.5217 83.125 26.4216 79.2 28.5236 75.3L36.6311 60.6L15.0111 15H9.00555C7.30398 15 5.87766 14.425 4.7266 13.275C3.57553 12.125 3 10.7 3 9C3 7.3 3.57553 5.875 4.7266 4.725C5.87766 3.575 7.30398 3 9.00555 3H18.7646C19.8656 3 20.9166 3.3 21.9175 3.9C22.9184 4.5 23.6691 5.35 24.1696 6.45L28.2233 15Z" fill="#FDEADC"/>
</svg>
